<svg width="60" height="60" viewBox="0 0 60 60" fill="none" xmlns="http://www.w3.org/2000/svg">
<path fill-rule="evenodd" clip-rule="evenodd" d="M25.7248 15.569L25.72 15.5769L11.6033 39.1436C10.7014 40.7051 10.6961 42.5994 11.5758 44.1429C12.4556 45.6863 14.0883 46.6471 15.8648 46.6667H44.1164C45.9112 46.6471 47.5439 45.6863 48.4237 44.1429C49.3035 42.5994 49.2981 40.7051 48.4097 39.1666L34.2795 15.5769C33.3684 14.0747 31.7475 13.1621 29.9998 13.1621C28.252 13.1621 26.6312 14.0747 25.7248 15.569ZM14.4718 42.4922C14.1785 41.9777 14.1803 41.3463 14.4764 40.8334L28.5768 17.2945C28.8793 16.7983 29.4185 16.4954 29.9998 16.4954C30.5823 16.4954 31.1226 16.7996 31.4248 17.2977L45.5367 40.8565C45.8192 41.3463 45.821 41.9777 45.5278 42.4922C45.2345 43.0067 44.6903 43.3269 44.0981 43.3334H15.8831C15.3093 43.3269 14.765 43.0067 14.4718 42.4922ZM29.9998 40.8333C28.8492 40.8333 27.9164 39.9006 27.9164 38.75C27.9164 37.5994 28.8492 36.6667 29.9998 36.6667C31.1504 36.6667 32.0831 37.5994 32.0831 38.75C32.0831 39.9006 31.1504 40.8333 29.9998 40.8333ZM29.9998 23.3334C29.0793 23.3334 28.3331 24.0795 28.3331 25V31.6667C28.3331 32.5872 29.0793 33.3333 29.9998 33.3333C30.9202 33.3333 31.6664 32.5872 31.6664 31.6667V25C31.6664 24.0795 30.9202 23.3334 29.9998 23.3334Z" fill="#FF695B"/>
<path fill-rule="evenodd" clip-rule="evenodd" d="M25.7248 15.569L25.72 15.5769L11.6033 39.1436C10.7014 40.7051 10.6961 42.5994 11.5758 44.1429C12.4556 45.6863 14.0883 46.6471 15.8648 46.6667H44.1164C45.9112 46.6471 47.5439 45.6863 48.4237 44.1429C49.3035 42.5994 49.2981 40.7051 48.4097 39.1666L34.2795 15.5769C33.3684 14.0747 31.7475 13.1621 29.9998 13.1621C28.252 13.1621 26.6312 14.0747 25.7248 15.569ZM14.4718 42.4922C14.1785 41.9777 14.1803 41.3463 14.4764 40.8334L28.5768 17.2945C28.8793 16.7983 29.4185 16.4954 29.9998 16.4954C30.5823 16.4954 31.1226 16.7996 31.4248 17.2977L45.5367 40.8565C45.8192 41.3463 45.821 41.9777 45.5278 42.4922C45.2345 43.0067 44.6903 43.3269 44.0981 43.3334H15.8831C15.3093 43.3269 14.765 43.0067 14.4718 42.4922ZM29.9998 40.8333C28.8492 40.8333 27.9164 39.9006 27.9164 38.75C27.9164 37.5994 28.8492 36.6667 29.9998 36.6667C31.1504 36.6667 32.0831 37.5994 32.0831 38.75C32.0831 39.9006 31.1504 40.8333 29.9998 40.8333ZM29.9998 23.3334C29.0793 23.3334 28.3331 24.0795 28.3331 25V31.6667C28.3331 32.5872 29.0793 33.3333 29.9998 33.3333C30.9202 33.3333 31.6664 32.5872 31.6664 31.6667V25C31.6664 24.0795 30.9202 23.3334 29.9998 23.3334Z" fill="#272729" fill-opacity="0.12"/>
<circle cx="30" cy="30" r="30" fill="#FF695B" fill-opacity="0.3"/>
</svg>
