<svg width="14" height="14" viewBox="0 0 14 14" fill="none" xmlns="http://www.w3.org/2000/svg">
<path d="M5.82116 7.00001L0.577085 1.75593C0.251649 1.4305 0.251649 0.902858 0.577085 0.577421C0.902522 0.251984 1.43016 0.251984 1.7556 0.577421L6.99967 5.8215L12.2438 0.577421C12.5692 0.251984 13.0968 0.251984 13.4223 0.577421C13.7477 0.902858 13.7477 1.4305 13.4223 1.75593L8.17818 7.00001L13.4223 12.2441C13.7477 12.5695 13.7477 13.0972 13.4223 13.4226C13.0968 13.748 12.5692 13.748 12.2438 13.4226L6.99967 8.17852L1.7556 13.4226C1.43016 13.748 0.902522 13.748 0.577085 13.4226C0.251649 13.0972 0.251649 12.5695 0.577085 12.2441L5.82116 7.00001Z" fill="#6726F1"/>
</svg>
