<svg width="40" height="40" viewBox="0 0 40 40" fill="none" xmlns="http://www.w3.org/2000/svg">
<rect width="40" height="40" fill="#E6E6EB"/>
<rect x="-537" y="-488" width="1440" height="1026" fill="white"/>
<circle cx="20" cy="20" r="20" fill="#3EA5EF" fill-opacity="0.25"/>
<path fill-rule="evenodd" clip-rule="evenodd" d="M23.2929 14.2929L14 23.5858L10.7071 20.2929C10.3166 19.9024 9.68342 19.9024 9.29289 20.2929C8.90237 20.6834 8.90237 21.3166 9.29289 21.7071L13.2929 25.7071C13.6834 26.0976 14.3166 26.0976 14.7071 25.7071L24.7071 15.7071C25.0976 15.3166 25.0976 14.6834 24.7071 14.2929C24.3166 13.9024 23.6834 13.9024 23.2929 14.2929ZM19.2929 25.7071C19.6834 26.0976 20.3166 26.0976 20.7071 25.7071L30.7071 15.7071C31.0976 15.3166 31.0976 14.6834 30.7071 14.2929C30.3166 13.9024 29.6834 13.9024 29.2929 14.2929L19.2929 24.2929C18.9024 24.6834 18.9024 25.3166 19.2929 25.7071Z" fill="#455FE5"/>
</svg>
