<svg width="43" height="43" viewBox="0 0 43 43" fill="none" xmlns="http://www.w3.org/2000/svg">
<rect width="43" height="43" rx="21.5" fill="#6726F1" fill-opacity="0.15"/>
<path fill-rule="evenodd" clip-rule="evenodd" d="M29.3182 12.9H13.6818C12.0671 12.9 10.75 14.059 10.75 15.48V27.52C10.75 28.941 12.0671 30.1 13.6818 30.1H29.3182C30.9329 30.1 32.25 28.941 32.25 27.52V15.48C32.25 14.059 30.9329 12.9 29.3182 12.9ZM14.8351 15.05L21.5 20.1467L28.1649 15.05H14.8351ZM12.9 16.2768V27.1437C12.9 27.5853 13.3322 27.95 13.8556 27.95H29.1444C29.6678 27.95 30.1 27.5853 30.1 27.1437V16.2768L22.153 22.3539C21.7676 22.6487 21.2324 22.6487 20.847 22.3539L12.9 16.2768Z" fill="#6726F1"/>
</svg>
