<svg width="24" height="24" viewBox="0 0 24 24" fill="none" xmlns="http://www.w3.org/2000/svg">
<path fill-rule="evenodd" clip-rule="evenodd" d="M5.58124 21.8137L12 17.2289L18.4188 21.8137C19.0806 22.2865 20 21.8134 20 21V5C20 3.34315 18.6569 2 17 2H7C5.34315 2 4 3.34315 4 5V21C4 21.8134 4.91937 22.2865 5.58124 21.8137ZM18 5V19.0568L12.5812 15.1863C12.2335 14.9379 11.7665 14.9379 11.4188 15.1863L6 19.0568V5C6 4.44772 6.44772 4 7 4H17C17.5523 4 18 4.44772 18 5Z" fill="#6726F1"/>
<path fill-rule="evenodd" clip-rule="evenodd" d="M5.58124 21.8137L12 17.2289L18.4188 21.8137C19.0806 22.2865 20 21.8134 20 21V5C20 3.34315 18.6569 2 17 2H7C5.34315 2 4 3.34315 4 5V21C4 21.8134 4.91937 22.2865 5.58124 21.8137ZM18 5V19.0568L12.5812 15.1863C12.2335 14.9379 11.7665 14.9379 11.4188 15.1863L6 19.0568V5C6 4.44772 6.44772 4 7 4H17C17.5523 4 18 4.44772 18 5Z" fill="#272729" fill-opacity="0.16"/>
</svg>
