<svg width="24" height="24" viewBox="0 0 24 24" fill="none" xmlns="http://www.w3.org/2000/svg">
<path fill-rule="evenodd" clip-rule="evenodd" d="M2.08798 11.6522C2.20512 11.4335 2.42497 11.0687 2.74528 10.6058C3.27542 9.83968 3.90094 9.07401 4.62122 8.35693C6.71776 6.26972 9.1835 5 12 5C14.8165 5 17.2822 6.26972 19.3788 8.35693C20.0991 9.07401 20.7246 9.83968 21.2547 10.6058C21.575 11.0687 21.7949 11.4335 21.912 11.6522C22.0293 11.8711 22.0293 12.1289 21.912 12.3478C21.7949 12.5665 21.575 12.9313 21.2547 13.3942C20.7246 14.1603 20.0991 14.926 19.3788 15.6431C17.2822 17.7303 14.8165 19 12 19C9.1835 19 6.71776 17.7303 4.62122 15.6431C3.90094 14.926 3.27542 14.1603 2.74528 13.3942C2.42497 12.9313 2.20512 12.5665 2.08798 12.3478C1.97067 12.1289 1.97067 11.8711 2.08798 11.6522ZM12 16C14.2091 16 16 14.2091 16 12C16 9.79086 14.2091 8 12 8C9.79086 8 8 9.79086 8 12C8 14.2091 9.79086 16 12 16ZM10 12C10 13.1046 10.8954 14 12 14C13.1046 14 14 13.1046 14 12C14 10.8954 13.1046 10 12 10C10.8954 10 10 10.8954 10 12Z" fill="#6726F1"/>
</svg>
