<svg width="40" height="40" viewBox="0 0 40 40" fill="none" xmlns="http://www.w3.org/2000/svg">
<rect width="40" height="40" fill="#E6E6EB"/>
<rect x="-647" y="-488" width="1440" height="1026" fill="white"/>
<rect width="40" height="40" rx="20" fill="#3DCC79" fill-opacity="0.15"/>
<path fill-rule="evenodd" clip-rule="evenodd" d="M20 10C16.6863 10 15 12.6863 15 16H14.5C12.567 16 11 17.567 11 19.5V26.5C11 28.433 12.567 30 14.5 30H25.5C27.433 30 29 28.433 29 26.5V19.5C29 17.567 27.433 16 25.5 16H25C25 12.6863 23.3137 10 20 10ZM20 12C22.2091 12 23 13.7909 23 16H17C17 13.7909 17.7909 12 20 12ZM15 18C13.8954 18 13 18.8954 13 20V26C13 27.1046 13.8954 28 15 28H25C26.1046 28 27 27.1046 27 26V20C27 18.8954 26.1046 18 25 18H15ZM18 23C18 24.1046 18.8954 25 20 25C21.1046 25 22 24.1046 22 23C22 21.8954 21.1046 21 20 21C18.8954 21 18 21.8954 18 23Z" fill="#3DCC79"/>
</svg>
