<svg width="24" height="24" viewBox="0 0 24 24" fill="none" xmlns="http://www.w3.org/2000/svg">
<path fill-rule="evenodd" clip-rule="evenodd" d="M19.2727 4H4.72727C3.2252 4 2 5.07817 2 6.4V17.6C2 18.9218 3.2252 20 4.72727 20H19.2727C20.7748 20 22 18.9218 22 17.6V6.4C22 5.07817 20.7748 4 19.2727 4ZM5.80007 6L12 10.7411L18.1999 6H5.80007ZM4 7.14123V17.25C4 17.6608 4.40203 18 4.88889 18H19.1111C19.598 18 20 17.6608 20 17.25V7.14123L12.6075 12.7944C12.2489 13.0685 11.7511 13.0685 11.3925 12.7944L4 7.14123Z" fill="#6726F1"/>
</svg>
