<svg width="24" height="24" viewBox="0 0 24 24" fill="none" xmlns="http://www.w3.org/2000/svg">
<path fill-rule="evenodd" clip-rule="evenodd" d="M9.47686 2.51493L9.14333 3.84904C9.12903 3.90622 9.10635 3.96097 9.07603 4.01151C8.90627 4.29444 8.5393 4.38618 8.25637 4.21643L7.07717 3.50891C6.29022 3.03674 5.28291 3.16074 4.63397 3.80968L3.80968 4.63397C3.16074 5.28291 3.03674 6.29022 3.50891 7.07717L4.21643 8.25637C4.24675 8.30691 4.26943 8.36166 4.28373 8.41884C4.36375 8.73894 4.16913 9.0633 3.84904 9.14333L2.51493 9.47686C1.62459 9.69944 1 10.4994 1 11.4171V12.5829C1 13.5006 1.62459 14.3006 2.51493 14.5231L3.84904 14.8567C3.90622 14.871 3.96097 14.8936 4.01151 14.924C4.29444 15.0937 4.38618 15.4607 4.21643 15.7436L3.50891 16.9228C3.03674 17.7098 3.16074 18.7171 3.80968 19.366L4.63397 20.1903C5.28291 20.8393 6.29022 20.9633 7.07717 20.4911L8.25637 19.7836C8.30691 19.7533 8.36166 19.7306 8.41884 19.7163C8.73894 19.6362 9.0633 19.8309 9.14333 20.151L9.47686 21.4851C9.69944 22.3754 10.4994 23 11.4171 23H12.5829C13.5006 23 14.3006 22.3754 14.5231 21.4851L14.8567 20.151C14.871 20.0938 14.8936 20.039 14.924 19.9885C15.0937 19.7056 15.4607 19.6138 15.7436 19.7836L16.9228 20.4911C17.7098 20.9633 18.7171 20.8393 19.366 20.1903L20.1903 19.366C20.8393 18.7171 20.9633 17.7098 20.4911 16.9228L19.7836 15.7436C19.7533 15.6931 19.7306 15.6383 19.7163 15.5812C19.6362 15.2611 19.8309 14.9367 20.151 14.8567L21.4851 14.5231C22.3754 14.3006 23 13.5006 23 12.5829V11.4171C23 10.4994 22.3754 9.69944 21.4851 9.47686L20.151 9.14333C20.0938 9.12903 20.039 9.10635 19.9885 9.07603C19.7056 8.90627 19.6138 8.5393 19.7836 8.25637L20.4911 7.07717C20.9633 6.29022 20.8393 5.28291 20.1903 4.63397L19.366 3.80968C18.7171 3.16074 17.7098 3.03674 16.9228 3.50891L15.7436 4.21643C15.6931 4.24675 15.6383 4.26943 15.5812 4.28373C15.2611 4.36375 14.9367 4.16913 14.8567 3.84904L14.5231 2.51493C14.3006 1.62459 13.5006 1 12.5829 1H11.4171C10.4994 1 9.69944 1.62459 9.47686 2.51493ZM10.791 5.0405C10.9229 4.82076 11.0215 4.58272 11.0836 4.33411L11.4171 3H12.5829L12.9164 4.33411C13.2643 5.72579 14.6745 6.57193 16.0662 6.22401C16.3148 6.16186 16.5529 6.06326 16.7726 5.93141L17.9518 5.2239L18.7761 6.04818L18.0686 7.22738C17.3305 8.45747 17.7294 10.053 18.9595 10.791C19.1792 10.9229 19.4173 11.0215 19.6659 11.0836L21 11.4171V12.5829L19.6659 12.9164C18.2742 13.2643 17.4281 14.6745 17.776 16.0662C17.8381 16.3148 17.9367 16.5529 18.0686 16.7726L18.7761 17.9518L17.9518 18.7761L16.7726 18.0686C15.5425 17.3305 13.947 17.7294 13.209 18.9595C13.0771 19.1792 12.9785 19.4173 12.9164 19.6659L12.5829 21H11.4171L11.0836 19.6659C10.7357 18.2742 9.32546 17.4281 7.93377 17.776C7.68516 17.8381 7.44712 17.9367 7.22738 18.0686L6.04818 18.7761L5.2239 17.9518L5.93141 16.7726C6.66947 15.5425 6.27059 13.947 5.0405 13.209C4.82076 13.0771 4.58272 12.9785 4.33411 12.9164L3 12.5829V11.4171L4.33411 11.0836C5.72579 10.7357 6.57193 9.32546 6.22401 7.93377C6.16186 7.68516 6.06326 7.44712 5.93141 7.22738L5.2239 6.04818L6.04818 5.2239L7.22738 5.93141C8.45747 6.66947 10.053 6.27059 10.791 5.0405ZM12 16C9.79086 16 8 14.2091 8 12C8 9.79086 9.79086 8 12 8C14.2091 8 16 9.79086 16 12C16 14.2091 14.2091 16 12 16ZM14 12C14 13.1046 13.1046 14 12 14C10.8954 14 10 13.1046 10 12C10 10.8954 10.8954 10 12 10C13.1046 10 14 10.8954 14 12Z" fill="#6726F1"/>
</svg>
