<svg width="24" height="24" viewBox="0 0 24 24" fill="none" xmlns="http://www.w3.org/2000/svg">
<path fill-rule="evenodd" clip-rule="evenodd" d="M1.81981 10.4066C1.46747 10.9357 1.22563 11.3526 1.09678 11.6025C0.967742 11.8527 0.967742 12.1473 1.09678 12.3975C1.22563 12.6474 1.46747 13.0643 1.81981 13.5934C2.40296 14.4689 3.09103 15.344 3.88334 16.1635C6.18953 18.5489 8.90185 20 12 20C15.0982 20 17.8105 18.5489 20.1167 16.1635C20.909 15.344 21.597 14.4689 22.1802 13.5934C22.5325 13.0643 22.7744 12.6474 22.9032 12.3975C23.0323 12.1473 23.0323 11.8527 22.9032 11.6025C22.7744 11.3526 22.5325 10.9357 22.1802 10.4066C21.597 9.53106 20.909 8.65602 20.1167 7.8365C17.8105 5.4511 15.0982 4 12 4C8.90185 4 6.18953 5.4511 3.88334 7.8365C3.09103 8.65602 2.40296 9.53106 1.81981 10.4066ZM5.24909 14.8423C4.54046 14.1326 3.92058 13.3692 3.3959 12.6064C3.24698 12.3899 3.11491 12.1865 3 12C3.11491 11.8135 3.24698 11.6101 3.3959 11.3936C3.92058 10.6308 4.54046 9.86741 5.24909 9.15766C7.23147 7.17215 9.49406 6 12 6C14.5059 6 16.7685 7.17215 18.7509 9.15766C19.4595 9.86741 20.0794 10.6308 20.6041 11.3936C20.753 11.6101 20.8851 11.8135 21 12C20.8851 12.1865 20.753 12.3899 20.6041 12.6064C20.0794 13.3692 19.4595 14.1326 18.7509 14.8423C16.7685 16.8278 14.5059 18 12 18C9.49406 18 7.23147 16.8278 5.24909 14.8423ZM12 16C9.79086 16 8 14.2091 8 12C8 9.79086 9.79086 8 12 8C14.2091 8 16 9.79086 16 12C16 14.2091 14.2091 16 12 16ZM14 12C14 13.1046 13.1046 14 12 14C10.8954 14 10 13.1046 10 12C10 10.8954 10.8954 10 12 10C13.1046 10 14 10.8954 14 12Z" fill="#6726F1"/>
</svg>
