<svg width="24" height="24" viewBox="0 0 24 24" fill="none" xmlns="http://www.w3.org/2000/svg">
<path fill-rule="evenodd" clip-rule="evenodd" d="M15 11L5.41421 11L8.70711 7.70711C9.09763 7.31658 9.09763 6.68342 8.70711 6.29289C8.31658 5.90237 7.68342 5.90237 7.29289 6.29289L2.29289 11.2929C1.90237 11.6834 1.90237 12.3166 2.29289 12.7071L7.29289 17.7071C7.68342 18.0976 8.31658 18.0976 8.70711 17.7071C9.09763 17.3166 9.09763 16.6834 8.70711 16.2929L5.41421 13L15 13C15.5523 13 16 12.5523 16 12C16 11.4477 15.5523 11 15 11ZM14 3C14 3.55228 14.4477 4 15 4L19 4C19.5523 4 20 4.44771 20 5L20 19C20 19.5523 19.5523 20 19 20L15 20C14.4477 20 14 20.4477 14 21C14 21.5523 14.4477 22 15 22L19 22C20.6569 22 22 20.6569 22 19L22 5C22 3.34314 20.6569 2 19 2L15 2C14.4477 2 14 2.44772 14 3Z" fill="#6726F1"/>
</svg>
