<svg width="40" height="40" viewBox="0 0 40 40" fill="none" xmlns="http://www.w3.org/2000/svg">
<rect width="40" height="40" fill="#E6E6EB"/>
<rect x="-592" y="-488" width="1440" height="1026" fill="white"/>
<path fill-rule="evenodd" clip-rule="evenodd" d="M19.1849 10.5038L16.5874 15.736L10.7785 16.5802C10.0332 16.6885 9.73617 17.5994 10.2758 18.1219L14.4783 22.1918L13.4865 27.9414C13.3591 28.6798 14.1386 29.2428 14.8055 28.8941L20 26.178L25.1945 28.8941C25.8614 29.2428 26.6409 28.6798 26.5135 27.9414L25.5217 22.1918L29.7242 18.1219C30.2638 17.5994 29.9668 16.6885 29.2215 16.5802L23.4126 15.736L20.8151 10.5038C20.4817 9.83208 19.5183 9.83208 19.1849 10.5038ZM18.0446 16.8683L20 13L21.9554 16.8683C22.0852 17.125 22.3358 17.303 22.6259 17.3444L27 17.9688L23.8356 20.9784C23.6253 21.1784 23.5294 21.4667 23.579 21.7492L24.3256 26L20.415 23.9918C20.1552 23.8584 19.8448 23.8584 19.585 23.9918L15.6744 26L16.421 21.7492C16.4706 21.4667 16.3747 21.1784 16.1644 20.9784L13 17.9688L17.3741 17.3444C17.6642 17.303 17.9148 17.125 18.0446 16.8683Z" fill="#FFBE4F"/>
<circle cx="20" cy="20" r="20" fill="#DEB628" fill-opacity="0.28"/>
</svg>
