<svg width="24" height="24" viewBox="0 0 24 24" fill="none" xmlns="http://www.w3.org/2000/svg">
<path fill-rule="evenodd" clip-rule="evenodd" d="M12 2C8.68629 2 7 4.68629 7 8H6.5C4.567 8 3 9.567 3 11.5V18.5C3 20.433 4.567 22 6.5 22H17.5C19.433 22 21 20.433 21 18.5V11.5C21 9.567 19.433 8 17.5 8H17C17 4.68629 15.3137 2 12 2ZM12 4C14.2091 4 15 5.79086 15 8H9C9 5.79086 9.79086 4 12 4ZM7 10C5.89543 10 5 10.8954 5 12V18C5 19.1046 5.89543 20 7 20H17C18.1046 20 19 19.1046 19 18V12C19 10.8954 18.1046 10 17 10H7ZM10 15C10 16.1046 10.8954 17 12 17C13.1046 17 14 16.1046 14 15C14 13.8954 13.1046 13 12 13C10.8954 13 10 13.8954 10 15Z" fill="#3DCC79"/>
</svg>
