<svg width="10" height="6" viewBox="0 0 10 6" fill="none" xmlns="http://www.w3.org/2000/svg">
<path d="M5.70912 0.293588L9.70627 4.28884C9.89434 4.47682 10 4.73178 10 4.99763C10 5.55122 9.55101 6 8.99715 6L1.00285 6C0.736878 6 0.481799 5.89439 0.293728 5.70641C-0.0979099 5.31496 -0.0979098 4.68029 0.293728 4.28884L4.29088 0.293588C4.68252 -0.0978637 5.31749 -0.0978636 5.70912 0.293588Z" fill="#6726F1"/>
<path d="M5.70912 0.293588L9.70627 4.28884C9.89434 4.47682 10 4.73178 10 4.99763C10 5.55122 9.55101 6 8.99715 6L1.00285 6C0.736878 6 0.481799 5.89439 0.293728 5.70641C-0.0979099 5.31496 -0.0979098 4.68029 0.293728 4.28884L4.29088 0.293588C4.68252 -0.0978637 5.31749 -0.0978636 5.70912 0.293588Z" fill="#272729" fill-opacity="0.16"/>
</svg>
