<svg width="27" height="17" viewBox="0 0 27 17" fill="none" xmlns="http://www.w3.org/2000/svg">
<g clip-path="url(#clip0)">
<path fill-rule="evenodd" clip-rule="evenodd" d="M0.372803 1.21335C0.372803 0.543236 0.916036 0 1.58615 0H25.0442C25.7143 0 26.2575 0.543234 26.2575 1.21335V15.7735C26.2575 16.4436 25.7143 16.9868 25.0442 16.9868H1.58615C0.916038 16.9868 0.372803 16.4436 0.372803 15.7735V1.21335Z" fill="url(#paint0_radial)"/>
<path fill-rule="evenodd" clip-rule="evenodd" d="M0.372803 1.5C0.372803 0.671573 1.04438 0 1.8728 0H30.8728C31.7012 0 32.3728 0.671573 32.3728 1.5V19.5C32.3728 20.3284 31.7012 21 30.8728 21H1.8728C1.04438 21 0.372803 20.3284 0.372803 19.5V1.5Z" fill="#E5E5E5" fill-opacity="0.01"/>
<mask id="path-4-outside-1" maskUnits="userSpaceOnUse" x="2.87683" y="5.47144" width="21" height="6" fill="black">
<rect fill="white" x="2.87683" y="5.47144" width="21" height="6"/>
<path fill-rule="evenodd" clip-rule="evenodd" d="M6.35579 8.9532L6.8952 7.46909H6.9068L7.42881 8.9532H6.35579ZM6.44285 6.47144L4.87683 10.5159H5.79324L6.11804 9.61526H7.66666L7.97987 10.5159H8.92528L7.37666 6.47144H6.44285ZM9.28475 6.47148V10.516H10.1374V7.67803H10.149L11.164 10.516H11.8658L12.8808 7.64971H12.8924V10.516H13.745V6.47148H12.4632L11.5468 9.25277H11.5352L10.5666 6.47148H9.28475ZM14.5455 6.47148V10.516H17.6891V9.76825H15.4561V8.77695H17.4629V8.08588H15.4561V7.2192H17.6427V6.47148H14.5455ZM19.319 8.39743L17.8748 10.516H18.8956L19.8178 9.11682L20.7226 10.516H21.8072L20.363 8.40309L21.6912 6.47148H20.6936L19.8526 7.763L19.0406 6.47148H17.985L19.319 8.39743Z"/>
</mask>
<path fill-rule="evenodd" clip-rule="evenodd" d="M6.35579 8.9532L6.8952 7.46909H6.9068L7.42881 8.9532H6.35579ZM6.44285 6.47144L4.87683 10.5159H5.79324L6.11804 9.61526H7.66666L7.97987 10.5159H8.92528L7.37666 6.47144H6.44285ZM9.28475 6.47148V10.516H10.1374V7.67803H10.149L11.164 10.516H11.8658L12.8808 7.64971H12.8924V10.516H13.745V6.47148H12.4632L11.5468 9.25277H11.5352L10.5666 6.47148H9.28475ZM14.5455 6.47148V10.516H17.6891V9.76825H15.4561V8.77695H17.4629V8.08588H15.4561V7.2192H17.6427V6.47148H14.5455ZM19.319 8.39743L17.8748 10.516H18.8956L19.8178 9.11682L20.7226 10.516H21.8072L20.363 8.40309L21.6912 6.47148H20.6936L19.8526 7.763L19.0406 6.47148H17.985L19.319 8.39743Z" fill="#1793C0" fill-opacity="0.01"/>
<path d="M6.35579 8.9532L5.59555 8.67689L5.20113 9.7621H6.35579V8.9532ZM6.8952 7.46909V6.66019H6.32853L6.13496 7.19278L6.8952 7.46909ZM6.9068 7.46909L7.66987 7.20069L7.47976 6.66019H6.9068V7.46909ZM7.42881 8.9532V9.7621H8.57079L8.19188 8.6848L7.42881 8.9532ZM6.44285 6.47144V5.66254H5.88864L5.68852 6.17936L6.44285 6.47144ZM4.87683 10.5159L4.12251 10.2238L3.69621 11.3248H4.87683V10.5159ZM5.79324 10.5159V11.3248H6.36142L6.55417 10.7903L5.79324 10.5159ZM6.11804 9.61526V8.80636H5.54987L5.35712 9.34085L6.11804 9.61526ZM7.66666 9.61526L8.43068 9.34957L8.24178 8.80636H7.66666V9.61526ZM7.97987 10.5159L7.21585 10.7816L7.40475 11.3248H7.97987V10.5159ZM8.92528 10.5159V11.3248H10.1012L9.68069 10.2267L8.92528 10.5159ZM7.37666 6.47144L8.13207 6.18219L7.9331 5.66254H7.37666V6.47144ZM9.28475 6.47148V5.66258H8.47585V6.47148H9.28475ZM9.28475 10.516H8.47585V11.3249H9.28475V10.516ZM10.1374 10.516V11.3249H10.9463V10.516H10.1374ZM10.1374 7.67803V6.86913H9.32846V7.67803H10.1374ZM10.149 7.67803L10.9106 7.40562L10.7187 6.86913H10.149V7.67803ZM11.164 10.516L10.4023 10.7884L10.5942 11.3249H11.164V10.516ZM11.8658 10.516V11.3249H12.4374L12.6283 10.786L11.8658 10.516ZM12.8808 7.64971V6.84081H12.3091L12.1183 7.37969L12.8808 7.64971ZM12.8924 7.64971H13.7013V6.84081H12.8924V7.64971ZM12.8924 10.516H12.0835V11.3249H12.8924V10.516ZM13.745 10.516V11.3249H14.5539V10.516H13.745ZM13.745 6.47148H14.5539V5.66258H13.745V6.47148ZM12.4632 6.47148V5.66258H11.878L11.6949 6.21834L12.4632 6.47148ZM11.5468 9.25277V10.0617H12.1319L12.315 9.50591L11.5468 9.25277ZM11.5352 9.25277L10.7713 9.51881L10.9603 10.0617H11.5352V9.25277ZM10.5666 6.47148L11.3305 6.20545L11.1414 5.66258H10.5666V6.47148ZM14.5455 6.47148V5.66258H13.7366V6.47148H14.5455ZM14.5455 10.516H13.7366V11.3249H14.5455V10.516ZM17.6891 10.516V11.3249H18.498V10.516H17.6891ZM17.6891 9.76825H18.498V8.95935H17.6891V9.76825ZM15.4561 9.76825H14.6472V10.5771H15.4561V9.76825ZM15.4561 8.77695V7.96805H14.6472V8.77695H15.4561ZM17.4629 8.77695V9.58585H18.2718V8.77695H17.4629ZM17.4629 8.08588H18.2718V7.27698H17.4629V8.08588ZM15.4561 8.08588H14.6472V8.89477H15.4561V8.08588ZM15.4561 7.2192V6.4103H14.6472V7.2192H15.4561ZM17.6427 7.2192V8.0281H18.4516V7.2192H17.6427ZM17.6427 6.47148H18.4516V5.66258H17.6427V6.47148ZM19.319 8.39743L19.9873 8.85305L20.3004 8.39378L19.9839 7.93684L19.319 8.39743ZM17.8748 10.516L17.2064 10.0603L16.3444 11.3249H17.8748V10.516ZM18.8956 10.516V11.3249H19.3312L19.571 10.9611L18.8956 10.516ZM19.8178 9.11682L20.497 8.67757L19.8242 7.6372L19.1424 8.67166L19.8178 9.11682ZM20.7226 10.516L20.0433 10.9552L20.2824 11.3249H20.7226V10.516ZM21.8072 10.516V11.3249H23.3399L22.475 10.0595L21.8072 10.516ZM20.363 8.40309L19.6965 7.94477L19.3822 8.40173L19.6952 8.85955L20.363 8.40309ZM21.6912 6.47148L22.3577 6.9298L23.2291 5.66258H21.6912V6.47148ZM20.6936 6.47148V5.66258H20.255L20.0157 6.03008L20.6936 6.47148ZM19.8526 7.763L19.1678 8.19354L19.8406 9.26371L20.5304 8.2044L19.8526 7.763ZM19.0406 6.47148L19.7254 6.04093L19.4875 5.66258H19.0406V6.47148ZM17.985 6.47148V5.66258H16.4407L17.32 6.93207L17.985 6.47148ZM7.11603 9.22951L7.65544 7.7454L6.13496 7.19278L5.59555 8.67689L7.11603 9.22951ZM6.8952 8.27799H6.9068V6.66019H6.8952V8.27799ZM6.14373 7.73748L6.66573 9.22159L8.19188 8.6848L7.66987 7.20069L6.14373 7.73748ZM7.42881 8.1443H6.35579V9.7621H7.42881V8.1443ZM5.68852 6.17936L4.12251 10.2238L5.63116 10.808L7.19717 6.76351L5.68852 6.17936ZM4.87683 11.3248H5.79324V9.70702H4.87683V11.3248ZM6.55417 10.7903L6.87897 9.88967L5.35712 9.34085L5.03231 10.2415L6.55417 10.7903ZM6.11804 10.4242H7.66666V8.80636H6.11804V10.4242ZM6.90264 9.88094L7.21585 10.7816L8.74388 10.2502L8.43068 9.34957L6.90264 9.88094ZM7.97987 11.3248H8.92528V9.70702H7.97987V11.3248ZM9.68069 10.2267L8.13207 6.18219L6.62124 6.76068L8.16986 10.8052L9.68069 10.2267ZM7.37666 5.66254H6.44285V7.28033H7.37666V5.66254ZM8.47585 6.47148V10.516H10.0936V6.47148H8.47585ZM9.28475 11.3249H10.1374V9.70707H9.28475V11.3249ZM10.9463 10.516V7.67803H9.32846V10.516H10.9463ZM10.1374 8.48693H10.149V6.86913H10.1374V8.48693ZM9.38731 7.95044L10.4023 10.7884L11.9256 10.2436L10.9106 7.40562L9.38731 7.95044ZM11.164 11.3249H11.8658V9.70707H11.164V11.3249ZM12.6283 10.786L13.6433 7.91972L12.1183 7.37969L11.1033 10.2459L12.6283 10.786ZM12.8808 8.4586H12.8924V6.84081H12.8808V8.4586ZM12.0835 7.64971V10.516H13.7013V7.64971H12.0835ZM12.8924 11.3249H13.745V9.70707H12.8924V11.3249ZM14.5539 10.516V6.47148H12.9361V10.516H14.5539ZM13.745 5.66258H12.4632V7.28038H13.745V5.66258ZM11.6949 6.21834L10.7785 8.99963L12.315 9.50591L13.2315 6.72462L11.6949 6.21834ZM11.5468 8.44387H11.5352V10.0617H11.5468V8.44387ZM12.2991 8.98674L11.3305 6.20545L9.80267 6.73751L10.7713 9.51881L12.2991 8.98674ZM10.5666 5.66258H9.28475V7.28038H10.5666V5.66258ZM13.7366 6.47148V10.516H15.3544V6.47148H13.7366ZM14.5455 11.3249H17.6891V9.70707H14.5455V11.3249ZM18.498 10.516V9.76825H16.8802V10.516H18.498ZM17.6891 8.95935H15.4561V10.5771H17.6891V8.95935ZM16.265 9.76825V8.77695H14.6472V9.76825H16.265ZM15.4561 9.58585H17.4629V7.96805H15.4561V9.58585ZM18.2718 8.77695V8.08588H16.654V8.77695H18.2718ZM17.4629 7.27698H15.4561V8.89477H17.4629V7.27698ZM16.265 8.08588V7.2192H14.6472V8.08588H16.265ZM15.4561 8.0281H17.6427V6.4103H15.4561V8.0281ZM18.4516 7.2192V6.47148H16.8338V7.2192H18.4516ZM17.6427 5.66258H14.5455V7.28038H17.6427V5.66258ZM18.6506 7.9418L17.2064 10.0603L18.5431 10.9716L19.9873 8.85305L18.6506 7.9418ZM17.8748 11.3249H18.8956V9.70707H17.8748V11.3249ZM19.571 10.9611L20.4932 9.56199L19.1424 8.67166L18.2202 10.0708L19.571 10.9611ZM19.1385 9.55608L20.0433 10.9552L21.4018 10.0767L20.497 8.67757L19.1385 9.55608ZM20.7226 11.3249H21.8072V9.70707H20.7226V11.3249ZM22.475 10.0595L21.0308 7.94663L19.6952 8.85955L21.1394 10.9724L22.475 10.0595ZM21.0295 8.86141L22.3577 6.9298L21.0247 6.01316L19.6965 7.94477L21.0295 8.86141ZM21.6912 5.66258H20.6936V7.28038H21.6912V5.66258ZM20.0157 6.03008L19.1747 7.3216L20.5304 8.2044L21.3714 6.91288L20.0157 6.03008ZM20.5374 7.33245L19.7254 6.04093L18.3558 6.90203L19.1678 8.19354L20.5374 7.33245ZM19.0406 5.66258H17.985V7.28038H19.0406V5.66258ZM17.32 6.93207L18.654 8.85801L19.9839 7.93684L18.6499 6.01089L17.32 6.93207Z" fill="white" mask="url(#path-4-outside-1)"/>
</g>
<defs>
<radialGradient id="paint0_radial" cx="0" cy="0" r="1" gradientUnits="userSpaceOnUse" gradientTransform="translate(9.06529 3.21979) rotate(90) scale(16.9868 25.8847)">
<stop stop-color="#71C8F2"/>
<stop offset="1" stop-color="#0071BD"/>
</radialGradient>
<clipPath id="clip0">
<rect x="0.372803" width="25.6708" height="16.9868" fill="white"/>
</clipPath>
</defs>
</svg>
