<svg width="27" height="17" viewBox="0 0 27 17" fill="none" xmlns="http://www.w3.org/2000/svg">
<g clip-path="url(#clip0)">
<path fill-rule="evenodd" clip-rule="evenodd" d="M0.461548 1.21335C0.461548 0.543236 1.00478 0 1.67489 0H25.1329C25.803 0 26.3463 0.543234 26.3463 1.21335V15.7735C26.3463 16.4436 25.803 16.9868 25.1329 16.9868H1.6749C1.00478 16.9868 0.461548 16.4436 0.461548 15.7735V1.21335Z" fill="url(#paint0_linear)"/>
<path fill-rule="evenodd" clip-rule="evenodd" d="M0.461548 1.5C0.461548 0.671573 1.13312 0 1.96155 0H30.9615C31.79 0 32.4615 0.671573 32.4615 1.5V19.5C32.4615 20.3284 31.79 21 30.9615 21H1.96155C1.13312 21 0.461548 20.3284 0.461548 19.5V1.5Z" fill="#E5E5E5" fill-opacity="0.01"/>
<path fill-rule="evenodd" clip-rule="evenodd" d="M6.13701 9.16638C5.96674 9.32117 5.74549 9.38868 5.3953 9.38868H5.24984V7.5397H5.3953C5.74549 7.5397 5.95805 7.60278 6.13701 7.76589C6.32445 7.93375 6.43717 8.19408 6.43717 8.46187C6.43717 8.7303 6.32445 8.99851 6.13701 9.16638ZM5.50385 7.06592H4.70825V9.86181H5.49966C5.92049 9.86181 6.22441 9.762 6.49107 9.53905C6.80809 9.27515 6.99553 8.87731 6.99553 8.46586C6.99553 7.64069 6.38286 7.06592 5.50385 7.06592Z" fill="#212D34"/>
<path fill-rule="evenodd" clip-rule="evenodd" d="M7.24487 9.86192H7.7869V7.06592H7.24487V9.86192Z" fill="#212D34"/>
<path fill-rule="evenodd" clip-rule="evenodd" d="M9.11229 8.13911C8.78701 8.01802 8.69157 7.93819 8.69157 7.78707C8.69157 7.611 8.86173 7.47716 9.09533 7.47716C9.25765 7.47716 9.3912 7.54435 9.53237 7.70357L9.81599 7.32993C9.58293 7.1248 9.30413 7.02002 8.99946 7.02002C8.50778 7.02002 8.1328 7.36352 8.1328 7.8211C8.1328 8.2063 8.30735 8.40355 8.81642 8.58783C9.02866 8.66323 9.13666 8.71335 9.19109 8.74705C9.29941 8.81824 9.35362 8.91902 9.35362 9.03644C9.35362 9.26296 9.17466 9.43082 8.9328 9.43082C8.67429 9.43082 8.46602 9.30066 8.34128 9.05783L7.99109 9.39712C8.24079 9.76601 8.54074 9.92944 8.95319 9.92944C9.51637 9.92944 9.91154 9.55256 9.91154 9.01138C9.91154 8.56709 9.72882 8.36606 9.11229 8.13911Z" fill="#212D34"/>
<path fill-rule="evenodd" clip-rule="evenodd" d="M10.0825 8.46655C10.0825 9.28837 10.7239 9.92559 11.5492 9.92559C11.7825 9.92559 11.9824 9.87946 12.2287 9.76269V9.12073C12.0121 9.33893 11.8201 9.42696 11.5744 9.42696C11.0285 9.42696 10.6411 9.02869 10.6411 8.46245C10.6411 7.9257 11.0408 7.50226 11.5492 7.50226C11.8077 7.50226 12.0034 7.59505 12.2287 7.81681V7.17517C11.9908 7.05376 11.7952 7.00342 11.562 7.00342C10.7408 7.00342 10.0825 7.65359 10.0825 8.46655Z" fill="#212D34"/>
<path fill-rule="evenodd" clip-rule="evenodd" d="M16.5261 8.94396L15.7852 7.06592H15.193L16.3722 9.93364H16.6638L17.8643 7.06592H17.2767L16.5261 8.94396Z" fill="#212D34"/>
<path fill-rule="evenodd" clip-rule="evenodd" d="M18.1094 9.86192H19.6465V9.38857H18.651V8.63383H19.6099V8.16027H18.651V7.5397H19.6465V7.06592H18.1094V9.86192Z" fill="#212D34"/>
<path fill-rule="evenodd" clip-rule="evenodd" d="M20.7052 8.35326H20.5469V7.50648H20.7138C21.0514 7.50648 21.2349 7.64875 21.2349 7.92085C21.2349 8.20192 21.0514 8.35326 20.7052 8.35326ZM21.7926 7.89141C21.7926 7.36794 21.4343 7.06592 20.8092 7.06592H20.0055V9.86192H20.5469V8.73872H20.6176L21.3678 9.86192H22.0344L21.1595 8.68406C21.5678 8.60046 21.7926 8.3195 21.7926 7.89141Z" fill="#212D34"/>
<g filter="url(#filter0_i)">
<path fill-rule="evenodd" clip-rule="evenodd" d="M15.3622 8.47415C15.3622 9.29565 14.7003 9.96159 13.8839 9.96159C13.0675 9.96159 12.4058 9.29565 12.4058 8.47415C12.4058 7.65265 13.0675 6.98682 13.8839 6.98682C14.7003 6.98682 15.3622 7.65265 15.3622 8.47415Z" fill="url(#paint1_linear)"/>
</g>
</g>
<defs>
<filter id="filter0_i" x="12.4058" y="6.98682" width="2.95641" height="2.97477" filterUnits="userSpaceOnUse" color-interpolation-filters="sRGB">
<feFlood flood-opacity="0" result="BackgroundImageFix"/>
<feBlend mode="normal" in="SourceGraphic" in2="BackgroundImageFix" result="shape"/>
<feColorMatrix in="SourceAlpha" type="matrix" values="0 0 0 0 0 0 0 0 0 0 0 0 0 0 0 0 0 0 127 0" result="hardAlpha"/>
<feOffset dx="0.808897" dy="0.808897"/>
<feComposite in2="hardAlpha" operator="arithmetic" k2="-1" k3="1"/>
<feColorMatrix type="matrix" values="0 0 0 0 0.314068 0 0 0 0 0.00146228 0 0 0 0 0.00146228 0 0 0 0.5 0"/>
<feBlend mode="normal" in2="shape" result="effect1_innerShadow"/>
</filter>
<linearGradient id="paint0_linear" x1="-12.4808" y1="8.49342" x2="3.10302" y2="32.2402" gradientUnits="userSpaceOnUse">
<stop stop-color="#EDF1F3"/>
<stop offset="1" stop-color="#D3DADF"/>
</linearGradient>
<linearGradient id="paint1_linear" x1="15.6948" y1="8.75848" x2="13.9406" y2="6.6839" gradientUnits="userSpaceOnUse">
<stop stop-color="#FFA700"/>
<stop offset="1" stop-color="#E75A10"/>
</linearGradient>
<clipPath id="clip0">
<rect x="0.461548" width="25.6708" height="16.9868" fill="white"/>
</clipPath>
</defs>
</svg>
