<svg width="26" height="17" viewBox="0 0 26 17" fill="none" xmlns="http://www.w3.org/2000/svg">
<g clip-path="url(#clip0)">
<path fill-rule="evenodd" clip-rule="evenodd" d="M0.284424 1.21335C0.284424 0.543236 0.827657 0 1.49777 0H24.9558C25.6259 0 26.1691 0.543234 26.1691 1.21335V15.7735C26.1691 16.4436 25.6259 16.9868 24.9558 16.9868H1.49777C0.827659 16.9868 0.284424 16.4436 0.284424 15.7735V1.21335Z" fill="#F4F6F7"/>
<path fill-rule="evenodd" clip-rule="evenodd" d="M10.3957 12.9421C12.8528 12.9421 14.8446 10.9502 14.8446 8.49312C14.8446 6.03605 12.8528 4.04419 10.3957 4.04419C7.93863 4.04419 5.94678 6.03605 5.94678 8.49312C5.94678 10.9502 7.93863 12.9421 10.3957 12.9421Z" fill="#D8232A"/>
<path fill-rule="evenodd" clip-rule="evenodd" d="M13.2269 11.9254C13.9961 12.5606 14.9825 12.9423 16.0581 12.9423C18.5152 12.9423 20.507 10.9504 20.507 8.49337C20.507 6.03629 18.5152 4.04443 16.0581 4.04443C14.9825 4.04443 13.9961 4.42609 13.2269 5.06137C14.215 5.87737 14.8447 7.11183 14.8447 8.49337C14.8447 9.8749 14.215 11.1094 13.2269 11.9254Z" fill="#ED9F2D"/>
<path fill-rule="evenodd" clip-rule="evenodd" d="M13.2269 5.06226C12.2388 5.87826 11.6091 7.11272 11.6091 8.49426C11.6091 9.87579 12.2388 11.1103 13.2269 11.9263C14.215 11.1103 14.8447 9.87579 14.8447 8.49426C14.8447 7.11272 14.215 5.87826 13.2269 5.06226Z" fill="#D8232A"/>
<mask id="mask0" mask-type="alpha" maskUnits="userSpaceOnUse" x="11" y="5" width="4" height="7">
<path fill-rule="evenodd" clip-rule="evenodd" d="M13.2269 5.06226C12.2388 5.87826 11.6091 7.11272 11.6091 8.49426C11.6091 9.87579 12.2388 11.1103 13.2269 11.9263C14.215 11.1103 14.8447 9.87579 14.8447 8.49426C14.8447 7.11272 14.215 5.87826 13.2269 5.06226Z" fill="white"/>
</mask>
<g mask="url(#mask0)">
<path fill-rule="evenodd" clip-rule="evenodd" d="M10.8003 5.65991H15.6537V6.46881H10.8003V5.65991ZM10.8003 7.27808H15.6537V8.08698H10.8003V7.27808ZM15.6537 8.89521H10.8003V9.7041H15.6537V8.89521ZM10.8003 10.5149H15.6537V11.3238H10.8003V10.5149ZM15.6537 12.1307H10.8003V12.9396H15.6537V12.1307Z" fill="#ED9F2D"/>
</g>
<path fill-rule="evenodd" clip-rule="evenodd" d="M0.284424 1.5C0.284424 0.671573 0.955997 0 1.78442 0H30.7844C31.6129 0 32.2844 0.671573 32.2844 1.5V19.5C32.2844 20.3284 31.6129 21 30.7844 21H1.78442C0.955997 21 0.284424 20.3284 0.284424 19.5V1.5Z" fill="#E5E5E5" fill-opacity="0.01"/>
</g>
<defs>
<clipPath id="clip0">
<rect x="0.284424" width="25.6708" height="16.9868" fill="white"/>
</clipPath>
</defs>
</svg>
