<svg width="26" height="17" viewBox="0 0 26 17" fill="none" xmlns="http://www.w3.org/2000/svg">
<g clip-path="url(#clip0)">
<path fill-rule="evenodd" clip-rule="evenodd" d="M0.196045 1.21335C0.196045 0.543236 0.739278 0 1.40939 0H24.8674C25.5375 0 26.0808 0.543234 26.0808 1.21335V15.7735C26.0808 16.4436 25.5375 16.9868 24.8674 16.9868H1.40939C0.73928 16.9868 0.196045 16.4436 0.196045 15.7735V1.21335Z" fill="#F4F6F7"/>
<path fill-rule="evenodd" clip-rule="evenodd" d="M0.196045 1.21335C0.196045 0.543233 0.739278 0 1.40939 0H24.8674C25.5375 0 26.0808 0.543234 26.0808 1.21335V4.04449H0.196045V1.21335Z" fill="#4095DB"/>
<path fill-rule="evenodd" clip-rule="evenodd" d="M0.196045 12.9434H26.0808V15.7745C26.0808 16.4446 25.5375 16.9878 24.8674 16.9878H1.40939C0.73928 16.9878 0.196045 16.4446 0.196045 15.7745V12.9434Z" fill="#F4B662"/>
<path fill-rule="evenodd" clip-rule="evenodd" d="M16.4876 5.89241C16.2357 5.78232 15.8396 5.66218 15.3462 5.66218C14.0868 5.66218 13.2003 6.40665 13.1929 7.47257C13.1849 8.26095 13.8255 8.70075 14.3085 8.96281C14.8048 9.23144 14.9716 9.40334 14.9696 9.64353C14.9662 10.0109 14.5735 10.1792 14.2072 10.1792C13.6972 10.1792 13.4263 10.0964 13.0074 9.89158L12.8435 9.80425L12.6654 11.0321C12.9624 11.1849 13.5131 11.3175 14.0845 11.3245C15.4229 11.3245 16.2926 10.5891 16.3028 9.45081C16.3074 8.82558 15.968 8.3516 15.2329 7.96032C14.7877 7.70604 14.5145 7.53754 14.5176 7.28009C14.5179 7.05205 14.7485 6.80805 15.2474 6.80805C15.664 6.8006 15.9656 6.90729 16.2007 7.01876L16.315 7.08154L16.4876 5.89241ZM10.5932 11.244L11.3901 5.75863H12.6639L11.8671 11.244H10.5932ZM18.6911 7.76669C18.6911 7.76669 18.2893 8.98458 18.1837 9.29987H19.2412C19.1908 9.02565 18.9464 7.71639 18.9464 7.71639L18.8604 7.24329C18.8264 7.35199 18.779 7.49607 18.7429 7.60562L18.7429 7.60564C18.7107 7.70329 18.6876 7.77349 18.6911 7.76669ZM19.7552 5.76356H18.7708C18.4654 5.76356 18.2369 5.8606 18.1031 6.21826L16.2115 11.2453H17.5494C17.5494 11.2453 17.7676 10.569 17.8172 10.4206C17.8858 10.4206 18.2093 10.4212 18.5522 10.4219L18.5524 10.4219C18.9391 10.4226 19.3504 10.4234 19.4487 10.4234C19.4869 10.6149 19.6038 11.2453 19.6038 11.2453H20.7861L19.7552 5.76356ZM9.52452 5.75992L8.27776 9.49962L8.14421 8.73943C8.14394 8.7384 8.14367 8.73736 8.14339 8.73633L7.69788 6.22079C7.62087 5.87318 7.39706 5.77014 7.12043 5.75799H5.06629L5.04932 5.87164C5.54925 6.01376 5.99628 6.21871 6.38802 6.47364L7.52029 11.2359L8.86839 11.235L10.8744 5.75992H9.52452Z" fill="#0071CE"/>
<path fill-rule="evenodd" clip-rule="evenodd" d="M0.196045 1.5C0.196045 0.671573 0.867618 0 1.69604 0H30.696C31.5245 0 32.196 0.671573 32.196 1.5V19.5C32.196 20.3284 31.5245 21 30.696 21H1.69604C0.867618 21 0.196045 20.3284 0.196045 19.5V1.5Z" fill="#E5E5E5" fill-opacity="0.01"/>
</g>
<defs>
<clipPath id="clip0">
<rect x="0.196045" width="25.6708" height="16.9868" fill="white"/>
</clipPath>
</defs>
</svg>
